# xmcd
#
# Track frame offsets:
#	150
#	84063
#	95764
#	105781
#	119119
#
# Disc length: 3541 seconds
#
# Revision: 1
# Processed by: cddbd v1.5.1PL0 Copyright (c) Steve Scherf et al.
# Submitted via: CDex 1.50Beta5
#
DISCID=320dd305
DTITLE=GROOVER - グリーングリーンドラマCD 〜幻のvol.03〜
DYEAR=1900
DGENRE=Other
TTITLE0=花乃香学園と鐘ノ音学園
TTITLE1=バッチグーの牛丼に物申す
TTITLE2=総長訓示
TTITLE3=風邪ひいてラブ
TTITLE4=出演声優人による地獄座談会
EXTD=
EXTT0=
EXTT1=
EXTT2=
EXTT3=
EXTT4=
PLAYORDER=
